<svg id="Layer_1" data-name="Layer 1" xmlns="http://www.w3.org/2000/svg" viewBox="0 0 384 368.19"><defs><style>.cls-1{fill:#fff;}</style></defs><path class="cls-1" d="M687,401.75c-1,7.15-1.56,14.38-3,21.45-13.7,68.11-53.38,114.91-116.93,142a110.25,110.25,0,0,1-11.27,4c-8.18,2.48-13.7-1.58-13.7-10,0-15.13,0-30.26.17-45.38.21-14.56-1.52-28.44-12.27-39.47,8.74-1.76,17.37-3.06,25.77-5.26,19.16-5,35.65-14.3,46.84-31.32,9-13.63,12.59-29,13.82-45,1.07-13.82.91-27.66-5.15-40.44-3.33-7-8.14-13.37-12.15-20.1-.72-1.21-1.43-3-1.06-4.2,4.58-14.93,3.31-29.56-1.35-44.22-1.16-3.66-3.41-4.54-6.34-3.92-7,1.47-14.35,2.55-20.92,5.28-8.37,3.47-16.07,8.51-24.16,12.67a8.67,8.67,0,0,1-5.47.93,186.43,186.43,0,0,0-90.15,0,8.46,8.46,0,0,1-5.78-1.1c-12-7.34-24.13-14.14-38.08-17-11-2.27-12.35-1.46-15.09,9.41-3.25,12.87-3.56,25.67.75,38.41a3.83,3.83,0,0,1-.66,3.19c-16.31,18.36-20.11,40.11-17.65,63.69,1.56,15,5.09,29.29,13.39,42,11.17,17.18,27.68,26.67,47,31.76,8.3,2.19,16.83,3.52,25.44,5.28a4.14,4.14,0,0,1-.65,1.15,38.2,38.2,0,0,0-9.81,20.26,5.55,5.55,0,0,1-4.23,4.92c-14.15,4.77-28.12,5.86-40.61-3.89-4.71-3.67-8.47-8.77-12-13.71-6.85-9.65-15.07-17-27.24-18.67a17.38,17.38,0,0,0-6.27.25c-1.53.35-3.72,1.39-4,2.53s1,3.13,2,4.4a15.23,15.23,0,0,0,4,3.3,48.18,48.18,0,0,1,20.78,25.33c9,24.19,31,32.14,53.28,30.15,4.1-.37,8.16-1.06,12.5-1.64.1.93.27,1.87.28,2.81.11,9,.23,18,.27,27,.05,9.25-5.82,13.69-14.54,10.52-65.76-23.92-108.07-69.35-125.17-137.53-2.14-8.55-2.72-17.5-4-26.26-.18-1.21-.43-2.4-.64-3.61V378.5c1.05-7.4,1.8-14.85,3.18-22.19,16.08-85.17,89.17-148.81,176.84-154,45.73-2.69,87.72,8.94,124.94,35.87,41.2,29.8,66.81,69.8,76.1,120,1.29,7,2,14,2.94,21.06Z" transform="translate(-303 -201.97)"/></svg>