<svg xmlns="http://www.w3.org/2000/svg" viewBox="0 0 64.21 123.89"><defs><style>.cls-1{fill:#FFFFFF;}</style></defs><g id="Layer_2" data-name="Layer 2"><g id="Camada_1" data-name="Camada 1"><path class="cls-1" d="M19,123.89c0-.52-.06-1-.06-1.56q0-26.61,0-53.22v-1.7H0v-22H19V43.82c0-5.76-.12-11.53.12-17.29.29-6.94,2.34-13.3,7.24-18.48A25.35,25.35,0,0,1,40,.75,52,52,0,0,1,52.84.11c3.5.14,7,.44,10.49.67a8.76,8.76,0,0,1,.88.16V20.58H62.94c-4.31.06-8.63,0-12.93.22-5.09.27-8,3.09-8.18,8.21-.21,5.31-.07,10.64-.08,16a1.35,1.35,0,0,0,.14.35h21.6c-1,7.41-1.88,14.65-2.83,22H41.82c0,.47-.1.81-.1,1.16v54.54c0,.28,0,.56.06.84Z"/></g></g></svg>